<svg xmlns="http://www.w3.org/2000/svg" width="56.693" height="56.693" viewBox="0 0 56.6934 56.6934"><path d="M28.068 4.155c-13.6 0-24.625 11.023-24.625 24.623s11.025 24.625 24.625 24.625 24.625-11.025 24.625-24.625S41.67 4.155 28.068 4.155zM30.4 35.25c-2.552 3.59-7.675 4.639-11.672 3.1-4.012-1.527-6.853-5.764-6.514-10.084.088-5.285 4.947-9.914 10.232-9.737 2.532-.118 4.912.984 6.852 2.532a36.525 36.525 0 0 1-2.6 2.694c-2.332-1.612-5.648-2.072-7.98-.21-3.335 2.306-3.487 7.753-.279 10.236 3.12 2.831 9.017 1.425 9.88-2.91-1.955-.029-3.914 0-5.869-.063-.004-1.166-.01-2.332-.004-3.497 3.267-.01 6.534-.015 9.806.01.195 2.742-.167 5.662-1.852 7.93zm14.087-5.02c-.975.01-1.95.015-2.93.024-.01.98-.014 1.955-.019 2.93h-2.92c-.009-.975-.009-1.95-.019-2.925l-2.929-.03v-2.913c.975-.01 1.95-.015 2.93-.02.004-.98.014-1.954.024-2.93h2.914c.005.976.01 1.955.02 2.93.974.01 1.954.01 2.929.02v2.914z"/></svg>